<svg version="1.1" id="_x32_" xmlns="http://www.w3.org/2000/svg" x="0" y="0" viewBox="0 0 512 512" style="width:256px;height:256px" xml:space="preserve" opacity="1"><style>.st0{fill:#4b4b4b}</style><path class="st0" d="M222.775 109.266c-17.752 7.363-33.62 17.998-47.365 31.66-13.661 13.743-24.379 29.614-31.659 47.366-5.317 12.762.737 27.323 13.497 32.64 3.11 1.309 6.383 1.882 9.573 1.882 9.818 0 19.06-5.808 23.069-15.461 4.828-11.535 11.863-22.006 20.861-31.087 9.081-8.998 19.47-16.034 31.087-20.861 12.762-5.235 18.816-19.878 13.58-32.64-5.318-12.763-19.962-18.734-32.643-13.499zm-24.951 360.439h118.048l5.808-30.35H191.934zM255.346 512c21.298 0 38.564-12.826 38.564-28.648h-77.127c0 15.822 17.265 28.648 38.563 28.648zM88.699 375.673a232.76 232.76 0 0010.65 10.756l25.029-27.414a192.253 192.253 0 01-8.014-8.089l-27.665 24.747zM28.12 212.084c-.105 2.812-.16 5.632-.16 8.464 0 2.257.032 4.522.103 6.79l26.477-1.374h10.608a190.502 190.502 0 01.024-11.8l-37.052-2.08zm97.528-130.887l-24.797-27.622a237.366 237.366 0 00-10.737 10.657l27.442 24.998a199.59 199.59 0 018.092-8.033zm130.507-44.085c2.086 0 4.164.032 6.232.096L264.352.143C261.612.048 258.841 0 256.107 0c-2.34 0-4.666.036-6.918.104l2.302 37.061c1.557-.036 3.114-.053 4.664-.053zm227.764 176.537l-37.068 1.906a197.318 197.318 0 01-.048 12.094l37.06 2.145c.121-2.96.176-5.932.176-8.919.001-2.38-.038-4.773-.12-7.226zM387.341 82.144a190.144 190.144 0 018.013 8.057l27.634-24.786a230.633 230.633 0 00-10.69-10.753l-24.957 27.482zm-1.26 278.338l24.708 27.698a227.408 227.408 0 0010.777-10.657l-27.402-25.037a191.624 191.624 0 01-8.083 7.996z" fill="#fff"/><path class="st0" d="M358.902 124.973C332.56 98.631 296.156 82.351 255.99 82.351c-40.166 0-76.57 16.28-102.831 42.622-26.342 26.342-42.621 62.746-42.621 102.912 0 42.212 21.106 91.787 47.53 117.475 21.841 21.27 33.214 36.485 39.102 47.12h-15.624l6.543 33.786h137.518l6.464-33.786h-17.263c5.89-10.635 17.263-25.851 39.104-47.12 26.423-25.688 47.53-75.262 47.53-117.475 0-40.166-16.281-76.57-42.54-102.912zM242.499 372.661a5.658 5.658 0 01-1.428.368c-1.941.24-3.871-.529-4.705-2.015l-38.278-68.115c-1.042-1.853.016-4.121 2.362-5.064 2.346-.945 5.093-.206 6.135 1.647l38.278 68.115c1.042 1.853-.016 4.121-2.364 5.064zm-.662-217.257c-11.617 4.827-22.006 11.862-31.087 20.861-8.998 9.081-16.033 19.552-20.861 31.087-4.01 9.653-13.251 15.461-23.069 15.461-3.19 0-6.462-.572-9.573-1.882-12.76-5.317-18.814-19.878-13.497-32.64 7.28-17.752 17.998-33.623 31.659-47.366 13.745-13.662 29.613-24.297 47.365-31.66 12.681-5.235 27.325.736 32.642 13.498 5.237 12.763-.817 27.406-13.579 32.641zm71.982 144.744l-42.334 70.032c-.923 1.527-2.902 2.388-4.832 2.241a5.276 5.276 0 01-1.409-.3c-2.292-.833-3.219-3.053-2.066-4.958l42.331-70.031c1.153-1.906 3.946-2.776 6.24-1.942 2.294.832 3.221 3.052 2.07 4.958z" fill="#fff"/></svg>