<svg xmlns="http://www.w3.org/2000/svg" viewBox="0 0 512 512" style="width:256px;height:256px"><path d="M259.712 104.608h-87.071c-5.51 0-9.957 4.464-9.957 9.967v73.176h97.028v-83.143zm34.564 83.143h97.028v-73.176c0-5.503-4.447-9.967-9.958-9.967h-87.07v83.143zM172.641 299.874h87.071v-83.143h-97.028v73.177a9.95 9.95 0 009.957 9.966zm121.635 0h87.07a9.95 9.95 0 009.958-9.966v-73.177h-97.028v83.143zM190.86 64.242c6.704 8.091 15.971 15.054 27.228 20.054 11.248 4.999 24.517 8.01 39.165 8.01 8.302-.008 17.383.065 17.692 0 .324.065 9.397-.008 17.7 0 11.158 0 21.522-1.745 30.789-4.788 13.918-4.569 25.41-12.019 33.622-21.002 4.09-4.488 7.385-9.366 9.682-14.535 2.289-5.153 3.595-10.615 3.595-16.134a33.32 33.32 0 00-1.81-10.899 36.09 36.09 0 00-5.802-10.623c-3.684-4.659-8.392-8.254-13.61-10.672C343.91 1.242 338.188 0 332.353 0a40.85 40.85 0 00-12.838 2.07c-6.331 2.078-12.4 5.794-17.521 11.151-5.129 5.356-9.276 12.319-12.011 20.726-3.563 10.956-14.227 35.797-14.527 36.406h-1.014c-.3-.609-10.972-25.45-14.535-36.406-1.817-5.608-4.26-10.566-7.215-14.843-4.431-6.411-10.014-11.248-16.093-14.422A41.264 41.264 0 00217.552 0c-7.774 0-15.379 2.216-21.806 6.452a36.637 36.637 0 00-8.562 7.872c-2.467 3.1-4.447 6.687-5.819 10.623a33.127 33.127 0 00-1.794 10.899c0 3.676.568 7.336 1.631 10.883 1.876 6.216 5.203 12.125 9.658 17.513zm115.321-25.02c1.363-4.172 3.091-7.596 5.048-10.428 2.929-4.228 6.346-7.109 9.95-9a24.303 24.303 0 0111.175-2.76c4.528 0 8.894 1.315 12.392 3.644a19.02 19.02 0 014.593 4.196 19.281 19.281 0 013.084 5.657c.577 1.664.868 3.416.868 5.3 0 1.882-.292 3.895-.925 6.005-1.104 3.685-3.254 7.661-6.468 11.54-4.797 5.819-11.963 11.329-20.995 15.338-9.056 4.009-19.948 6.541-32.258 6.541-.658 0-1.299-.008-1.924-.024 4.48-7.507 9.893-18.869 15.46-36.009zm-108.706-8.684v-.008a19.156 19.156 0 013.084-5.657c1.931-2.45 4.448-4.398 7.368-5.746 2.914-1.355 6.225-2.094 9.625-2.094 2.484 0 5.023.39 7.499 1.21 3.716 1.225 7.304 3.4 10.541 6.768 3.206 3.352 6.088 7.961 8.124 14.21 5.559 17.14 10.98 28.502 15.451 36.008-.616.016-1.257.024-1.914.024-9.382 0-17.944-1.461-25.491-3.936-11.313-3.701-20.345-9.715-26.335-16.288-3.002-3.287-5.242-6.695-6.694-9.966-1.461-3.295-2.135-6.412-2.135-9.22 0-1.896.292-3.641.877-5.305zm278.814 302.284c-11.313-12.335-32.396-9.714-46.502.723-12.888 10.728-100.981 68.632-100.981 68.632H221.732l-.342.17c-5.64-.196-10.046-4.918-9.876-10.558.203-5.632 4.95-10.055 10.55-9.861h78.557c15.834 0 28.68-13.017 28.68-28.85 0-15.858-12.847-28.696-28.68-28.696h-114.72c-71.716 0-94.423 29.889-119.524 54.974l-39.1 10.477.844 112.188 83.548-13.504c6.306-.998 12.174-.722 16.174 0l132.224 22.902c9.568 1.736 19.404-.463 27.382-6.071 0 0 175.034-121.731 187.978-132.493 12.312-11.295 12.183-27.697.862-40.033z" fill="#4b4b4b"/></svg>