<svg id="_2" xmlns="http://www.w3.org/2000/svg" viewBox="0 0 512 512"><defs><style>.cls-1{fill:#222}</style></defs><path class="cls-1" d="M453.04 429.78c-2-7.52-4.83-14.25-8.33-20.25-6.12-10.53-14.25-18.72-23.19-25.2-6.72-4.88-13.91-8.83-21.19-12.27-7.42-3.47-14.95-6.38-22.23-9.09-7.55-10.66-19.52-27-19.19-53.36.22-16.98 1.55-21.39 1.81-70.52 4.03-3.34 7.84-7.53 11.12-12.75 4.33-6.81 7.78-15.25 10.14-25.72.66-2.91.97-5.78.97-8.59.02-5.95-1.39-11.62-3.75-16.66-1.62-3.5-3.7-6.72-6.12-9.62 1.23-4.56 2.75-10.69 4.06-17.88 1.84-9.97 3.38-21.92 3.38-34.52 0-8.11-.64-16.48-2.28-24.78-1.23-6.2-3.05-12.36-5.62-18.27-3.84-8.88-9.44-17.22-17.22-24.09-7.2-6.41-16.25-11.47-27.14-14.75-4.61-5.5-9.38-10.19-14.28-14.09-8.28-6.62-17.02-11.05-25.91-13.72C279.19.96 270.18 0 261.21 0c-4.75 0-9.48.28-14.22.72-4.44.38-8.12.84-11.42 1.41-4.94.81-9 1.91-12.94 3.28-3.95 1.36-7.75 2.94-12.72 4.91-1.91.72-4.39 1.83-7.38 3.34-5.23 2.66-11.95 6.53-19.17 11.91-10.8 8.06-22.72 19.44-32.03 34.84-4.62 7.72-8.62 16.41-11.41 26.16-2.81 9.75-4.44 20.5-4.44 32.25 0 7.34.64 15.09 2 23.2 0 .58.02 1.09.06 1.64.06 1 .16 2.08.27 3.16.17 1.62.38 3.28.52 4.69.08.72.14 1.34.17 1.81.02.25.05.45.05.59v1.16l1.98 8.83c-2.84 3.11-5.31 6.59-7.23 10.45-2.67 5.31-4.27 11.31-4.27 17.69 0 2.81.31 5.72.97 8.59 1.58 6.97 3.64 13.06 6.11 18.34 3.73 7.97 8.42 14.19 13.66 18.81.47.44.97.88 1.47 1.27.25 49.17 1.58 53.58 1.8 70.56.33 26.38-11.66 42.7-19.19 53.38-3.27 1.22-6.56 2.47-9.88 3.8-8.28 3.31-16.66 7.03-24.62 11.75-5.98 3.53-11.75 7.59-17.05 12.45-7.94 7.27-14.78 16.31-19.5 27.55-4.75 11.19-7.39 24.47-7.38 40.14 0 2.2.45 4.33 1.23 6.27.7 1.84 1.69 3.5 2.84 5.09 2.17 2.97 4.98 5.62 8.44 8.19 6.05 4.44 14.08 8.62 24.48 12.56 15.58 5.88 36.48 11.12 63.5 15 27.02 3.82 60.14 6.21 100.06 6.21 34.62 0 64.12-1.8 88.95-4.78 18.62-2.22 34.64-5.12 48.23-8.44 10.19-2.5 19.03-5.22 26.61-8.11 5.69-2.14 10.67-4.39 15-6.7 3.23-1.72 6.12-3.5 8.66-5.31 3.81-2.75 6.88-5.62 9.19-8.84 1.16-1.59 2.12-3.31 2.83-5.19.69-1.84 1.11-3.86 1.11-5.95 0-10.72-1.23-20.3-3.53-28.89zm-273.53-67.94c3.05-1.81 6-3.75 8.73-5.94 2.92-2.34 5.64-4.98 8.02-7.94l54.39 25.25-25.56 46.89-45.58-58.27zm80.77 103.25l-27.33-34.94 25.83-47.41 25.73 47.2-24.23 35.14zm31.69-45.94l-25.2-46.2 48.56-25.52c1.08 1.38 2.2 2.69 3.42 3.92 3.84 3.95 8.3 7.23 13.06 10.08l-39.84 57.72zm59.16-193.84c-3.47 3.09-7.12 5.11-10.97 6.5l-3.69 1.36-1.3 3.7c-4.03 11.31-7.94 20.41-11.86 27.72-3.92 7.28-7.81 12.75-11.88 17.05l-1.59 1.7-.5 2.25c-1.81 8.34-3.62 17.56-3.62 28.47 0 3.38.17 6.88.56 10.58.44 4.33 1.42 8.39 2.92 12.14.06.19.14.34.22.53L258.62 364l-56.28-26.09c1.73-4.06 2.91-8.5 3.41-13.27v-.02c.38-3.69.55-7.19.55-10.55 0-10.92-1.8-20.17-3.62-28.52l-.5-2.25-1.59-1.69c-4.05-4.28-7.95-9.75-11.88-17.06-3.91-7.28-7.81-16.38-11.83-27.69l-1.31-3.7-3.69-1.33c-2.56-.95-5.03-2.19-7.44-3.78-3.59-2.41-7.02-5.72-10.14-10.64-3.14-4.94-5.95-11.55-7.98-20.48-.38-1.69-.55-3.33-.55-4.91 0-3.56.88-6.97 2.5-10.23 1.34-2.69 3.2-5.23 5.5-7.55 3.83 5.81 7 10.41 8.16 11.56 3.77 3.77 4.3-5.09 2.5-15.05-3.28-18.3 5.61-10.02 28.17-53.89 45.14 10.02 124.02-37.97 124.02-37.97s.95 21.88 16 41.95c14.27 19.02 22.39 63.7 22.39 63.7s1.95-3.69 4.84-8.62c1.73 2.03 3.17 4.22 4.22 6.5 1.42 3.06 2.19 6.25 2.19 9.59 0 1.56-.17 3.22-.55 4.91-1.34 5.95-3.06 10.88-4.97 14.97-2.86 6.11-6.16 10.31-9.61 13.41z"/><path class="cls-1" d="M254.18 425.69c0 3.12 2.53 5.66 5.66 5.66s5.64-2.53 5.64-5.66-2.53-5.62-5.64-5.62-5.66 2.53-5.66 5.62z"/></svg>