<?xml version="1.0" encoding="UTF-8"?><svg id="_2" xmlns="http://www.w3.org/2000/svg" viewBox="0 0 512 512"><defs><style>.cls-1{fill:#222;}</style></defs><path class="cls-1" d="m456.79,429.8c-2-7.48-4.86-14.2-8.36-20.19-6.16-10.52-14.31-18.7-23.33-25.2-6.78-4.91-14.02-8.89-21.38-12.31-11.06-5.16-22.38-9.09-32.84-12.89s-20.12-7.48-27.67-11.77l-.84-.47c-2.73-1.56-5.17-3.22-7.28-4.94-3.2-2.62-5.66-5.41-7.45-8.52-1.81-3.11-3-6.61-3.47-10.98-.34-3.09-.48-2.89-.48-6-.02-9.19,1.28-18.25,2.84-25.66,4.7-5.22,8.98-11.44,13.06-18.88,4.08-7.47,7.95-16.22,11.81-26.56,2.47-1.12,4.97-2.44,7.41-4.06,5.56-3.66,10.83-8.78,15.22-15.62,4.41-6.81,7.94-15.3,10.33-25.78.67-2.88,1-5.78,1-8.62,0-5.94-1.42-11.59-3.83-16.69-1.66-3.47-3.77-6.69-6.22-9.62,1.23-4.56,2.78-10.69,4.12-17.91,1.88-9.97,3.44-21.97,3.44-34.56,0-8.16-.66-16.56-2.33-24.84-1.27-6.22-3.11-12.41-5.73-18.31-3.91-8.88-9.61-17.25-17.55-24.16-7.33-6.41-16.55-11.48-27.64-14.75-3.92-4.62-7.86-8.56-11.91-11.91-3.48-2.88-7.06-5.31-10.7-7.28-5.5-3-11.19-4.97-17.03-6.19-5.83-1.22-11.78-1.66-17.92-1.66-8.5.03-17.44.84-27.33,1.8-3.72.38-6.86.83-9.56,1.3-4.05.72-7.09,1.47-9.52,1.94-1.22.25-2.3.44-3.33.53-1.06.16-2.09.22-3.25.22-1.53,0-3.34-.12-5.69-.47-7.19-1.03-13.78-2.62-18.94-4.19-2.58-.78-4.8-1.53-6.55-2.19-.88-.31-1.62-.62-2.25-.88-.59-.25-1.06-.47-1.33-.59-.8-.41-1.56-.62-2.23-.77-.7-.14-1.3-.17-1.81-.17-1.09,0-1.88.16-2.48.31-.62.17-1.11.34-1.53.52-.83.33-1.47.67-2.09,1.05-1.17.69-2.27,1.45-3.45,2.34-2.05,1.56-4.31,3.5-6.7,5.78-3.59,3.41-7.42,7.53-10.92,12.02-1.73,2.23-3.39,4.59-4.88,7.02-1.47,2.44-2.78,4.92-3.78,7.53-5.06,12.91-8.41,24.81-10.48,35.78-2.08,11-2.88,21.06-2.86,30.3-.02,15.11,2.14,27.92,4.19,38.73.02.53.05,1.02.08,1.53.06,1,.16,2.06.27,3.16.17,1.62.38,3.31.53,4.7.06.7.12,1.33.16,1.83.03.22.05.44.05.59l.02.16v.97l2.03,8.84c-2.92,3.12-5.44,6.62-7.39,10.47-2.72,5.34-4.34,11.38-4.34,17.73,0,2.83.33,5.73.98,8.64v-.03c1.61,7,3.72,13.09,6.23,18.41,3.78,7.98,8.58,14.19,13.91,18.84,4.11,3.62,8.48,6.27,12.86,8.22,3.83,10.34,7.72,19.06,11.8,26.53,4.05,7.47,8.34,13.66,13.06,18.88,1.55,7.44,2.84,16.5,2.83,25.7,0,3.11-.16,2.89-.45,5.98-.34,3-1.02,5.61-1.97,7.94-1.47,3.5-3.58,6.5-6.45,9.3s-6.52,5.39-10.83,7.8l-3.38,1.78c-3.59,1.81-7.55,3.53-11.77,5.22-9.7,3.88-20.78,7.53-32.02,11.92-8.44,3.31-16.95,7.06-25.08,11.78-6.09,3.52-11.95,7.62-17.36,12.48-8.06,7.28-15.03,16.34-19.86,27.56-4.83,11.25-7.5,24.53-7.5,40.25,0,2.19.47,4.34,1.25,6.28.73,1.81,1.72,3.5,2.89,5.09,2.22,2.97,5.09,5.62,8.61,8.19,6.14,4.47,14.34,8.64,24.94,12.59,15.89,5.89,37.17,11.19,64.7,15.03,27.52,3.84,61.27,6.25,101.95,6.25,35.25,0,65.3-1.81,90.61-4.78,18.97-2.25,35.27-5.16,49.12-8.47,10.38-2.5,19.38-5.23,27.11-8.12,5.8-2.16,10.86-4.41,15.28-6.72,3.3-1.72,6.23-3.5,8.81-5.34,3.89-2.75,7-5.59,9.36-8.81,1.19-1.62,2.17-3.34,2.88-5.22.7-1.84,1.14-3.88,1.12-5.97,0-10.66-1.22-20.22-3.53-28.77Zm-217.61.86l-54.27-73.53c.7-.5,1.41-1.03,2.06-1.55,2.98-2.34,5.75-4.98,8.17-7.95l43.73,19.97-9.34,15.31,14.47,15.06-4.83,32.69Zm-37.83-93.12c1.75-4.05,2.95-8.5,3.44-13.28.41-3.72.58-4.09.58-7.7,0-11.78-1.78-22.8-3.7-31.44l-.5-2.27-1.62-1.7c-4.14-4.3-8.11-9.77-12.09-17.08-4-7.31-7.97-16.41-12.06-27.75l-1.33-3.72-3.75-1.34c-2.61-.94-5.14-2.16-7.58-3.77-3.67-2.44-7.16-5.73-10.34-10.67s-6.06-11.56-8.12-20.53c-.38-1.69-.56-3.33-.56-4.92,0-3.56.89-6.97,2.53-10.23,1.38-2.69,3.3-5.25,5.62-7.56,3.91,5.81,7.14,10.42,8.31,11.58,3.83,3.77.23-5.52.84-15.08,1.16-18.61,18.8-40.12,20.88-82.91,45.97,10.05,135.86-9.16,135.86-9.16,0,0,.97,21.97,16.3,42.05,14.53,19.08,22.81,63.83,22.81,63.83,0,0,1.98-3.69,4.94-8.62,1.77,2.03,3.22,4.22,4.31,6.5,1.44,3.06,2.22,6.25,2.22,9.59,0,1.61-.19,3.25-.56,4.94-1.38,5.97-3.11,10.91-5.05,14.98-2.94,6.14-6.28,10.36-9.81,13.48-3.52,3.06-7.27,5.09-11.17,6.5l-3.75,1.34-1.33,3.7c-4.09,11.36-8.08,20.45-12.06,27.78-4,7.3-7.98,12.8-12.11,17.08l-1.62,1.7-.5,2.27c-1.94,8.62-3.7,19.64-3.7,31.41,0,3.62.17,3.98.56,7.72.45,4.34,1.47,8.42,2.98,12.16.06.19.16.38.22.53l-51.73,26.75-57.33-26.16Zm75.78,96.62l-5.34-36.19,14.45-15.06-9.38-15.38,39.56-20.44c1.11,1.38,2.27,2.69,3.5,3.92,2.25,2.28,4.7,4.33,7.3,6.22l-50.09,76.92Z"/><path class="cls-1" d="m324.04,251.06s-10.59-4.92-17.5-15.59c-8.83-13.66-27.22-29.56-50.34-16.94-23.16-12.62-41.52,3.28-50.36,16.94-6.91,10.67-17.48,15.59-17.48,15.59,0,0,13.5,15.42,40.53,6.31,21.92-7.38,27.31-22.16,27.31-22.16,0,0,5.38,14.78,27.3,22.16,27.02,9.11,40.55-6.31,40.55-6.31Z"/></svg>